<svg xmlns="http://www.w3.org/2000/svg" width="64" height="104" viewBox="0 0 64 104">
  <rect x="18" y="1" width="28" height="10" fill="#2c1a0e" rx="1"/>
  <rect x="13" y="8" width="38" height="6" fill="#3d2412"/>
  <rect x="20" y="14" width="24" height="24" fill="#C4A882"/>
  <rect x="23" y="18" width="6" height="6" fill="#fff" rx="1"/>
  <rect x="35" y="18" width="6" height="6" fill="#fff" rx="1"/>
  <rect x="25" y="20" width="2" height="2" fill="#1a1a1a"/>
  <rect x="37" y="20" width="2" height="2" fill="#1a1a1a"/>
  <rect x="28" y="30" width="8" height="2" fill="#2c1a0e"/>
  <rect x="11" y="16" width="9" height="6" fill="#5a3820"/>
  <rect x="44" y="16" width="9" height="6" fill="#5a3820"/>
  <rect x="3" y="20" width="8" height="5" fill="#5a3820"/>
  <rect x="53" y="20" width="8" height="5" fill="#5a3820"/>
  <rect x="19" y="38" width="26" height="30" fill="#2c1a0e"/>
  <rect x="11" y="40" width="9" height="24" fill="#3d2412"/>
  <rect x="44" y="40" width="9" height="24" fill="#3d2412"/>
  <rect x="53" y="54" width="10" height="6" fill="#BA7517" rx="1"/>
  <rect x="24" y="68" width="8" height="22" fill="#2c1a0e"/>
  <rect x="32" y="68" width="8" height="22" fill="#3d2412"/>
  <rect x="22" y="88" width="12" height="6" fill="#2c1a0e"/>
  <rect x="34" y="88" width="10" height="6" fill="#3d2412"/>
  <rect x="26" y="14" width="4" height="4" fill="#BA7517"/>
  <rect x="34" y="14" width="4" height="4" fill="#BA7517"/>
</svg>
