<svg xmlns="http://www.w3.org/2000/svg" width="64" height="104" viewBox="0 0 64 104">
  <rect x="17" y="1" width="30" height="10" fill="#2c1a0e" rx="1"/>
  <rect x="12" y="8" width="40" height="6" fill="#3d2412"/>
  <rect x="19" y="14" width="26" height="24" fill="#C4A882"/>
  <rect x="22" y="18" width="7" height="6" fill="#fff" rx="1"/>
  <rect x="35" y="18" width="7" height="6" fill="#fff" rx="1"/>
  <rect x="24" y="20" width="3" height="2" fill="#1a1a1a"/>
  <rect x="37" y="20" width="3" height="2" fill="#1a1a1a"/>
  <rect x="27" y="30" width="10" height="2" fill="#2c1a0e"/>
  <rect x="10" y="16" width="9" height="6" fill="#5a3820"/>
  <rect x="45" y="16" width="9" height="6" fill="#5a3820"/>
  <rect x="2" y="20" width="8" height="5" fill="#5a3820"/>
  <rect x="54" y="20" width="8" height="5" fill="#5a3820"/>
  <rect x="18" y="38" width="28" height="30" fill="#2c1a0e"/>
  <rect x="10" y="40" width="9" height="24" fill="#3d2412"/>
  <rect x="45" y="40" width="9" height="24" fill="#3d2412"/>
  <rect x="23" y="68" width="9" height="22" fill="#2c1a0e"/>
  <rect x="32" y="68" width="9" height="22" fill="#3d2412"/>
  <rect x="21" y="88" width="12" height="6" fill="#2c1a0e"/>
  <rect x="33" y="88" width="11" height="6" fill="#3d2412"/>
  <rect x="20" y="12" width="6" height="3" fill="#BA7517"/>
  <rect x="38" y="12" width="6" height="3" fill="#BA7517"/>
</svg>
