<svg xmlns="http://www.w3.org/2000/svg" width="58" height="116" viewBox="0 0 58 116">
  <rect x="12" y="0" width="34" height="14" fill="#1a1a1a" rx="1"/>
  <rect x="7" y="8" width="44" height="8" fill="#222"/>
  <rect x="13" y="16" width="32" height="26" fill="#2a2a2a"/>
  <rect x="18" y="22" width="8" height="6" fill="#111" rx="1"/>
  <rect x="32" y="22" width="8" height="6" fill="#111" rx="1"/>
  <rect x="20" y="23" width="4" height="4" fill="#444"/>
  <rect x="34" y="23" width="4" height="4" fill="#444"/>
  <rect x="4" y="18" width="9" height="7" fill="#222"/>
  <rect x="45" y="18" width="9" height="7" fill="#222"/>
  <rect x="0" y="23" width="4" height="5" fill="#222"/>
  <rect x="54" y="23" width="4" height="5" fill="#222"/>
  <rect x="11" y="42" width="36" height="38" fill="#1a1a1a"/>
  <rect x="2" y="44" width="10" height="32" fill="#222"/>
  <rect x="46" y="44" width="10" height="32" fill="#222"/>
  <rect x="15" y="80" width="12" height="26" fill="#1a1a1a"/>
  <rect x="27" y="80" width="12" height="26" fill="#222"/>
  <rect x="13" y="104" width="15" height="7" fill="#1a1a1a"/>
  <rect x="28" y="104" width="14" height="7" fill="#222"/>
</svg>
