<svg xmlns="http://www.w3.org/2000/svg" width="64" height="100" viewBox="0 0 64 100">
  <rect x="18" y="2" width="28" height="9" fill="#3d3d3d" rx="1"/>
  <rect x="14" y="8" width="36" height="6" fill="#555"/>
  <rect x="20" y="14" width="24" height="22" fill="#C4A882"/>
  <rect x="23" y="17" width="6" height="5" fill="#fff" rx="1"/>
  <rect x="35" y="17" width="6" height="5" fill="#fff" rx="1"/>
  <rect x="25" y="19" width="2" height="2" fill="#333"/>
  <rect x="37" y="19" width="2" height="2" fill="#333"/>
  <rect x="28" y="28" width="8" height="2" fill="#555"/>
  <rect x="12" y="16" width="8" height="5" fill="#888"/>
  <rect x="44" y="16" width="8" height="5" fill="#888"/>
  <rect x="5" y="20" width="7" height="4" fill="#888"/>
  <rect x="52" y="20" width="7" height="4" fill="#888"/>
  <rect x="20" y="36" width="24" height="28" fill="#555"/>
  <rect x="13" y="38" width="8" height="22" fill="#777"/>
  <rect x="43" y="38" width="8" height="22" fill="#777"/>
  <rect x="52" y="52" width="10" height="5" fill="#888" rx="1"/>
  <rect x="24" y="64" width="8" height="22" fill="#3d3d3d"/>
  <rect x="32" y="64" width="8" height="22" fill="#555"/>
  <rect x="22" y="84" width="10" height="6" fill="#3d3d3d"/>
  <rect x="32" y="84" width="10" height="6" fill="#555"/>
</svg>
