<svg xmlns="http://www.w3.org/2000/svg" width="58" height="112" viewBox="0 0 58 112">
  <rect x="14" y="0" width="30" height="12" fill="#111" rx="1"/>
  <rect x="9" y="8" width="40" height="7" fill="#1a1a1a"/>
  <rect x="13" y="15" width="32" height="24" fill="#C4A882"/>
  <rect x="16" y="19" width="8" height="6" fill="#fff" rx="1"/>
  <rect x="34" y="19" width="8" height="6" fill="#fff" rx="1"/>
  <rect x="18" y="20" width="4" height="3" fill="#534AB7"/>
  <rect x="36" y="20" width="4" height="3" fill="#534AB7"/>
  <rect x="22" y="31" width="14" height="2" fill="#534AB7"/>
  <rect x="4" y="17" width="9" height="7" fill="#222"/>
  <rect x="45" y="17" width="9" height="7" fill="#222"/>
  <rect x="0" y="22" width="4" height="5" fill="#222"/>
  <rect x="54" y="22" width="4" height="5" fill="#222"/>
  <rect x="11" y="39" width="36" height="36" fill="#111"/>
  <rect x="2" y="41" width="10" height="30" fill="#1a1a1a"/>
  <rect x="46" y="41" width="10" height="30" fill="#1a1a1a"/>
  <rect x="15" y="75" width="12" height="26" fill="#111"/>
  <rect x="27" y="75" width="12" height="26" fill="#1a1a1a"/>
  <rect x="13" y="99" width="15" height="6" fill="#111"/>
  <rect x="28" y="99" width="14" height="6" fill="#1a1a1a"/>
  <rect x="24" y="37" width="10" height="3" fill="#f5f5f5"/>
</svg>
