<svg xmlns="http://www.w3.org/2000/svg" width="58" height="116" viewBox="0 0 58 116">
  <rect x="11" y="0" width="36" height="14" fill="#1a1a1a" rx="1"/>
  <rect x="6" y="8" width="46" height="8" fill="#222"/>
  <rect x="12" y="16" width="34" height="26" fill="#2a2a2a"/>
  <rect x="17" y="22" width="8" height="6" fill="#111" rx="1"/>
  <rect x="33" y="22" width="8" height="6" fill="#111" rx="1"/>
  <rect x="19" y="23" width="4" height="4" fill="#444"/>
  <rect x="35" y="23" width="4" height="4" fill="#444"/>
  <rect x="3" y="18" width="9" height="7" fill="#222"/>
  <rect x="46" y="18" width="9" height="7" fill="#222"/>
  <rect x="10" y="42" width="38" height="38" fill="#1a1a1a"/>
  <rect x="1" y="44" width="10" height="32" fill="#222"/>
  <rect x="47" y="44" width="10" height="32" fill="#222"/>
  <rect x="14" y="80" width="13" height="26" fill="#1a1a1a"/>
  <rect x="27" y="80" width="13" height="26" fill="#222"/>
  <rect x="12" y="104" width="16" height="7" fill="#1a1a1a"/>
  <rect x="28" y="104" width="15" height="7" fill="#222"/>
</svg>
