<svg xmlns="http://www.w3.org/2000/svg" width="60" height="108" viewBox="0 0 60 108">
  <rect x="17" y="2" width="26" height="9" fill="#1a2744" rx="1"/>
  <rect x="12" y="8" width="36" height="6" fill="#243660"/>
  <rect x="16" y="14" width="28" height="24" fill="#C4A882"/>
  <rect x="19" y="18" width="7" height="6" fill="#fff" rx="1"/>
  <rect x="34" y="18" width="7" height="6" fill="#fff" rx="1"/>
  <rect x="21" y="19" width="3" height="3" fill="#185FA5"/>
  <rect x="36" y="19" width="3" height="3" fill="#185FA5"/>
  <rect x="24" y="30" width="12" height="2" fill="#378ADD"/>
  <rect x="7" y="16" width="9" height="6" fill="#2d4a7a"/>
  <rect x="44" y="16" width="9" height="6" fill="#2d4a7a"/>
  <rect x="0" y="20" width="7" height="5" fill="#2d4a7a"/>
  <rect x="53" y="20" width="7" height="5" fill="#2d4a7a"/>
  <rect x="14" y="38" width="32" height="34" fill="#1a2744"/>
  <rect x="5" y="40" width="10" height="28" fill="#243660"/>
  <rect x="45" y="40" width="10" height="28" fill="#243660"/>
  <rect x="18" y="72" width="10" height="24" fill="#1a2744"/>
  <rect x="28" y="72" width="10" height="24" fill="#243660"/>
  <rect x="16" y="94" width="12" height="6" fill="#1a2744"/>
  <rect x="28" y="94" width="12" height="6" fill="#243660"/>
</svg>
