<svg xmlns="http://www.w3.org/2000/svg" width="70" height="116" viewBox="0 0 70 116">
  <rect x="14" y="0" width="42" height="13" fill="#1a0000" rx="1"/>
  <rect x="8" y="8" width="54" height="8" fill="#2d0000"/>
  <rect x="15" y="16" width="40" height="28" fill="#C4A882"/>
  <rect x="19" y="20" width="10" height="8" fill="#fff" rx="1"/>
  <rect x="41" y="20" width="10" height="8" fill="#fff" rx="1"/>
  <rect x="21" y="21" width="6" height="5" fill="#8B1A1A"/>
  <rect x="43" y="21" width="6" height="5" fill="#8B1A1A"/>
  <rect x="27" y="36" width="16" height="3" fill="#2d0000"/>
  <rect x="5" y="18" width="10" height="8" fill="#2d0000"/>
  <rect x="55" y="18" width="10" height="8" fill="#2d0000"/>
  <rect x="0" y="24" width="5" height="6" fill="#2d0000"/>
  <rect x="65" y="24" width="5" height="6" fill="#2d0000"/>
  <rect x="12" y="44" width="46" height="40" fill="#1a0000"/>
  <rect x="2" y="46" width="11" height="34" fill="#2d0000"/>
  <rect x="57" y="46" width="11" height="34" fill="#2d0000"/>
  <rect x="7" y="62" width="8" height="10" fill="#8B1A1A" rx="1"/>
  <rect x="18" y="84" width="14" height="22" fill="#1a0000"/>
  <rect x="32" y="84" width="14" height="22" fill="#2d0000"/>
  <rect x="15" y="104" width="17" height="7" fill="#1a0000"/>
  <rect x="32" y="104" width="17" height="7" fill="#2d0000"/>
  <rect x="10" y="12" width="5" height="5" fill="#8B1A1A"/>
  <rect x="55" y="12" width="5" height="5" fill="#8B1A1A"/>
</svg>
