<svg xmlns="http://www.w3.org/2000/svg" width="58" height="112" viewBox="0 0 58 112">
  <rect x="13" y="0" width="32" height="12" fill="#111" rx="1"/>
  <rect x="8" y="8" width="42" height="7" fill="#1a1a1a"/>
  <rect x="14" y="15" width="30" height="24" fill="#C4A882"/>
  <rect x="17" y="19" width="8" height="6" fill="#fff" rx="1"/>
  <rect x="33" y="19" width="8" height="6" fill="#fff" rx="1"/>
  <rect x="19" y="20" width="4" height="3" fill="#534AB7"/>
  <rect x="35" y="20" width="4" height="3" fill="#534AB7"/>
  <rect x="23" y="31" width="12" height="2" fill="#534AB7"/>
  <rect x="5" y="17" width="9" height="7" fill="#222"/>
  <rect x="44" y="17" width="9" height="7" fill="#222"/>
  <rect x="0" y="22" width="5" height="5" fill="#222"/>
  <rect x="53" y="22" width="5" height="5" fill="#222"/>
  <rect x="12" y="39" width="34" height="36" fill="#111"/>
  <rect x="3" y="41" width="10" height="30" fill="#1a1a1a"/>
  <rect x="45" y="41" width="10" height="30" fill="#1a1a1a"/>
  <rect x="55" y="58" width="3" height="9" fill="#888" rx="1"/>
  <rect x="16" y="75" width="11" height="26" fill="#111"/>
  <rect x="27" y="75" width="11" height="26" fill="#1a1a1a"/>
  <rect x="14" y="99" width="14" height="6" fill="#111"/>
  <rect x="28" y="99" width="14" height="6" fill="#1a1a1a"/>
</svg>
