<svg xmlns="http://www.w3.org/2000/svg" width="60" height="108" viewBox="0 0 60 108">
  <rect x="16" y="1" width="28" height="10" fill="#1a2744" rx="1"/>
  <rect x="11" y="8" width="38" height="6" fill="#243660"/>
  <rect x="17" y="14" width="26" height="24" fill="#C4A882"/>
  <rect x="20" y="18" width="7" height="6" fill="#fff" rx="1"/>
  <rect x="33" y="18" width="7" height="6" fill="#fff" rx="1"/>
  <rect x="22" y="19" width="3" height="3" fill="#185FA5"/>
  <rect x="35" y="19" width="3" height="3" fill="#185FA5"/>
  <rect x="25" y="30" width="10" height="2" fill="#378ADD"/>
  <rect x="8" y="16" width="9" height="6" fill="#2d4a7a"/>
  <rect x="43" y="16" width="9" height="6" fill="#2d4a7a"/>
  <rect x="0" y="20" width="8" height="5" fill="#2d4a7a"/>
  <rect x="52" y="20" width="8" height="5" fill="#2d4a7a"/>
  <rect x="15" y="38" width="30" height="34" fill="#1a2744"/>
  <rect x="6" y="40" width="10" height="28" fill="#243660"/>
  <rect x="44" y="40" width="10" height="28" fill="#243660"/>
  <rect x="54" y="56" width="6" height="8" fill="#378ADD" rx="1"/>
  <rect x="19" y="72" width="10" height="24" fill="#1a2744"/>
  <rect x="29" y="72" width="10" height="24" fill="#243660"/>
  <rect x="17" y="94" width="12" height="6" fill="#1a2744"/>
  <rect x="29" y="94" width="12" height="6" fill="#243660"/>
</svg>
