<svg xmlns="http://www.w3.org/2000/svg" width="64" height="96" viewBox="0 0 64 96">
  <rect x="20" y="4" width="24" height="8" fill="#5C3D1E" rx="1"/>
  <rect x="16" y="9" width="32" height="5" fill="#7A5230"/>
  <rect x="20" y="14" width="24" height="22" fill="#C4A882" rx="1"/>
  <rect x="23" y="18" width="6" height="5" fill="#fff" rx="1"/>
  <rect x="35" y="18" width="6" height="5" fill="#fff" rx="1"/>
  <rect x="25" y="20" width="2" height="2" fill="#555"/>
  <rect x="37" y="20" width="2" height="2" fill="#555"/>
  <rect x="26" y="28" width="12" height="2" fill="#A8845A"/>
  <rect x="12" y="16" width="8" height="5" fill="#A8845A"/>
  <rect x="44" y="16" width="8" height="5" fill="#A8845A"/>
  <rect x="6" y="20" width="6" height="4" fill="#A8845A"/>
  <rect x="52" y="20" width="6" height="4" fill="#A8845A"/>
  <rect x="20" y="36" width="24" height="26" fill="#8B6914"/>
  <rect x="13" y="38" width="8" height="20" fill="#A8845A"/>
  <rect x="43" y="38" width="8" height="20" fill="#A8845A"/>
  <rect x="24" y="62" width="8" height="20" fill="#5C3D1E"/>
  <rect x="32" y="62" width="8" height="20" fill="#7A5230"/>
  <rect x="22" y="80" width="10" height="6" fill="#5C3D1E"/>
  <rect x="32" y="80" width="10" height="6" fill="#7A5230"/>
</svg>
