<svg xmlns="http://www.w3.org/2000/svg" width="58" height="120" viewBox="0 0 58 120">
  <rect x="10" y="0" width="38" height="15" fill="#e8e0d0" rx="1"/>
  <rect x="5" y="8" width="48" height="9" fill="#f5f0e8"/>
  <rect x="11" y="17" width="36" height="28" fill="#C4A882"/>
  <rect x="14" y="21" width="10" height="8" fill="#fff" rx="1"/>
  <rect x="34" y="21" width="10" height="8" fill="#fff" rx="1"/>
  <rect x="16" y="22" width="6" height="5" fill="#BA7517"/>
  <rect x="36" y="22" width="6" height="5" fill="#BA7517"/>
  <rect x="22" y="37" width="14" height="3" fill="#BA7517"/>
  <rect x="2" y="19" width="9" height="9" fill="#e8e0d0"/>
  <rect x="47" y="19" width="9" height="9" fill="#e8e0d0"/>
  <rect x="0" y="26" width="2" height="6" fill="#e8e0d0"/>
  <rect x="56" y="26" width="2" height="6" fill="#e8e0d0"/>
  <rect x="9" y="45" width="40" height="42" fill="#e8e0d0"/>
  <rect x="0" y="47" width="10" height="36" fill="#f5f0e8"/>
  <rect x="48" y="47" width="10" height="36" fill="#f5f0e8"/>
  <rect x="55" y="65" width="3" height="10" fill="#BA7517" rx="1"/>
  <rect x="13" y="87" width="14" height="26" fill="#e8e0d0"/>
  <rect x="27" y="87" width="14" height="26" fill="#f5f0e8"/>
  <rect x="11" y="111" width="17" height="7" fill="#e8e0d0"/>
  <rect x="28" y="111" width="17" height="7" fill="#f5f0e8"/>
  <rect x="8" y="10" width="6" height="6" fill="#fff"/>
  <rect x="44" y="10" width="6" height="6" fill="#fff"/>
  <rect x="14" y="10" width="30" height="4" fill="#fff"/>
</svg>
