<svg xmlns="http://www.w3.org/2000/svg" width="64" height="100" viewBox="0 0 64 100">
  <rect x="20" y="3" width="24" height="8" fill="#3d3d3d" rx="1"/>
  <rect x="16" y="8" width="32" height="5" fill="#555"/>
  <rect x="20" y="13" width="24" height="22" fill="#C4A882"/>
  <rect x="23" y="17" width="6" height="5" fill="#fff" rx="1"/>
  <rect x="35" y="17" width="6" height="5" fill="#fff" rx="1"/>
  <rect x="25" y="19" width="2" height="2" fill="#333"/>
  <rect x="37" y="19" width="2" height="2" fill="#333"/>
  <rect x="27" y="27" width="10" height="2" fill="#888"/>
  <rect x="13" y="15" width="7" height="5" fill="#777"/>
  <rect x="44" y="15" width="7" height="5" fill="#777"/>
  <rect x="6" y="19" width="7" height="4" fill="#777"/>
  <rect x="51" y="19" width="7" height="4" fill="#777"/>
  <rect x="20" y="35" width="24" height="28" fill="#444"/>
  <rect x="13" y="37" width="7" height="22" fill="#666"/>
  <rect x="44" y="37" width="7" height="22" fill="#666"/>
  <rect x="24" y="63" width="8" height="22" fill="#3d3d3d"/>
  <rect x="32" y="63" width="8" height="22" fill="#555"/>
  <rect x="22" y="83" width="10" height="6" fill="#3d3d3d"/>
  <rect x="32" y="83" width="10" height="6" fill="#555"/>
</svg>
