<svg xmlns="http://www.w3.org/2000/svg" width="58" height="112" viewBox="0 0 58 112">
  <rect x="12" y="0" width="34" height="13" fill="#0a0a0a" rx="1"/>
  <rect x="7" y="7" width="44" height="8" fill="#111"/>
  <rect x="12" y="15" width="34" height="26" fill="#C4A882"/>
  <rect x="15" y="19" width="9" height="7" fill="#fff" rx="1"/>
  <rect x="34" y="19" width="9" height="7" fill="#fff" rx="1"/>
  <rect x="17" y="20" width="5" height="4" fill="#7F77DD"/>
  <rect x="36" y="20" width="5" height="4" fill="#7F77DD"/>
  <rect x="22" y="33" width="14" height="2" fill="#7F77DD"/>
  <rect x="3" y="17" width="9" height="8" fill="#111"/>
  <rect x="46" y="17" width="9" height="8" fill="#111"/>
  <rect x="0" y="23" width="3" height="5" fill="#111"/>
  <rect x="55" y="23" width="3" height="5" fill="#111"/>
  <rect x="10" y="41" width="38" height="38" fill="#0a0a0a"/>
  <rect x="1" y="43" width="10" height="32" fill="#111"/>
  <rect x="47" y="43" width="10" height="32" fill="#111"/>
  <rect x="14" y="79" width="13" height="26" fill="#0a0a0a"/>
  <rect x="27" y="79" width="13" height="26" fill="#111"/>
  <rect x="12" y="103" width="16" height="6" fill="#0a0a0a"/>
  <rect x="28" y="103" width="16" height="6" fill="#111"/>
</svg>
