<svg xmlns="http://www.w3.org/2000/svg" width="70" height="116" viewBox="0 0 70 116">
  <rect x="12" y="0" width="46" height="14" fill="#0a0000" rx="1"/>
  <rect x="6" y="7" width="58" height="9" fill="#1a0000"/>
  <rect x="13" y="16" width="44" height="30" fill="#C4A882"/>
  <rect x="17" y="20" width="12" height="9" fill="#fff" rx="1"/>
  <rect x="41" y="20" width="12" height="9" fill="#fff" rx="1"/>
  <rect x="19" y="21" width="8" height="6" fill="#8B1A1A"/>
  <rect x="43" y="21" width="8" height="6" fill="#8B1A1A"/>
  <rect x="26" y="38" width="18" height="3" fill="#8B1A1A"/>
  <rect x="3" y="18" width="10" height="9" fill="#1a0000"/>
  <rect x="57" y="18" width="10" height="9" fill="#1a0000"/>
  <rect x="0" y="25" width="3" height="6" fill="#1a0000"/>
  <rect x="67" y="25" width="3" height="6" fill="#1a0000"/>
  <rect x="10" y="46" width="50" height="42" fill="#0a0000"/>
  <rect x="0" y="48" width="11" height="36" fill="#1a0000"/>
  <rect x="59" y="48" width="11" height="36" fill="#1a0000"/>
  <rect x="16" y="88" width="15" height="22" fill="#0a0000"/>
  <rect x="31" y="88" width="15" height="22" fill="#1a0000"/>
  <rect x="13" y="108" width="18" height="7" fill="#0a0000"/>
  <rect x="31" y="108" width="18" height="7" fill="#1a0000"/>
  <rect x="8" y="10" width="7" height="7" fill="#8B1A1A"/>
  <rect x="55" y="10" width="7" height="7" fill="#8B1A1A"/>
  <rect x="15" y="10" width="40" height="4" fill="#8B1A1A"/>
</svg>
