<svg xmlns="http://www.w3.org/2000/svg" width="72" height="100" viewBox="0 0 72 100">
  <rect x="22" y="2" width="28" height="8" fill="#1a1a2e"/>
  <rect x="18" y="8" width="36" height="6" fill="#2d2d44"/>
  <rect x="24" y="14" width="24" height="22" fill="#378ADD"/>
  <rect x="28" y="18" width="6" height="5" fill="#fff" rx="1"/>
  <rect x="38" y="18" width="6" height="5" fill="#fff" rx="1"/>
  <rect x="30" y="20" width="2" height="2" fill="#1a1a2e"/>
  <rect x="40" y="20" width="2" height="2" fill="#1a1a2e"/>
  <rect x="30" y="28" width="12" height="3" fill="#1a1a2e"/>
  <rect x="14" y="16" width="10" height="6" fill="#2563a8"/>
  <rect x="48" y="16" width="10" height="6" fill="#2563a8"/>
  <rect x="8" y="22" width="6" height="4" fill="#2563a8"/>
  <rect x="58" y="22" width="6" height="4" fill="#2563a8"/>
  <rect x="22" y="36" width="28" height="28" fill="#1a1a2e"/>
  <rect x="16" y="38" width="8" height="22" fill="#2d2d44"/>
  <rect x="48" y="38" width="8" height="22" fill="#2d2d44"/>
  <rect x="54" y="52" width="10" height="6" fill="#888" rx="1"/>
  <rect x="26" y="64" width="10" height="22" fill="#2d2d44"/>
  <rect x="36" y="64" width="10" height="22" fill="#1a1a2e"/>
  <rect x="24" y="84" width="12" height="6" fill="#1a1a2e"/>
  <rect x="36" y="84" width="12" height="6" fill="#2d2d44"/>
</svg>
